<svg xmlns="http://www.w3.org/2000/svg" width="16.047" height="16.042" viewBox="0 0 16.047 16.042">
  <g id="home" transform="translate(-3.374 -3.375)">
    <path id="Path_8490" data-name="Path 8490" d="M13.016,7.291a.151.151,0,0,0-.193,0L6.808,12.1a.162.162,0,0,0-.058.12v8.869a.077.077,0,0,0,.077.077h4.165a.077.077,0,0,0,.077-.077v-5.4a.077.077,0,0,1,.077-.077h3.548a.077.077,0,0,1,.077.077v5.4a.077.077,0,0,0,.077.077h4.165a.077.077,0,0,0,.077-.077V12.223a.156.156,0,0,0-.058-.12Z" transform="translate(-1.525 -1.753)" fill="#fff"/>
    <path id="Path_8491" data-name="Path 8491" d="M19.212,9.4,11.924,3.56a.846.846,0,0,0-1.057,0L7.693,6.14V4.513a.077.077,0,0,0-.077-.077H5.3a.077.077,0,0,0-.077.077V8.068L3.579,9.422a.54.54,0,0,0-.046.806.536.536,0,0,0,.382.158.543.543,0,0,0,.339-.12l7.092-5.707a.069.069,0,0,1,.05-.015.093.093,0,0,1,.05.015l7.092,5.684a.543.543,0,0,0,.339.12.547.547,0,0,0,.544-.571A.548.548,0,0,0,19.212,9.4Z" fill="#fff"/>
  </g>
</svg>
