<svg xmlns="http://www.w3.org/2000/svg" width="59" height="59" viewBox="0 0 59 59">
  <path id="Icon_awesome-medal" data-name="Icon awesome-medal" d="M25.784,15.067,17.818,1.791A3.687,3.687,0,0,0,14.655,0H1.847A1.844,1.844,0,0,0,.336,2.9L13.159,21.219A23.849,23.849,0,0,1,25.784,15.067ZM57.153,0H44.344a3.687,3.687,0,0,0-3.162,1.791L33.216,15.067a23.855,23.855,0,0,1,12.625,6.151L58.663,2.9A1.844,1.844,0,0,0,57.153,0ZM29.5,18.438A20.281,20.281,0,1,0,49.781,38.719,20.282,20.282,0,0,0,29.5,18.438ZM40.161,36.559l-4.371,4.259,1.034,6.018a1.323,1.323,0,0,1-1.919,1.393L29.5,45.389l-5.4,2.841a1.323,1.323,0,0,1-1.919-1.393l1.034-6.018L18.84,36.559a1.324,1.324,0,0,1,.732-2.257l6.042-.88,2.7-5.476a1.326,1.326,0,0,1,2.375,0l2.7,5.476,6.042.88A1.324,1.324,0,0,1,40.161,36.559Z" transform="translate(0)" fill="#fe9201"/>
</svg>
